# xmcd CD database file
#
# Track frame offsets:
#	150
#	12394
#	26020
#	40774
#	54649
#	67460
#	80297
#	93665
#	106695
#	120708
#	133647
#	146681
#	159426
#	174340
#	188717
#	201171
#
# Disc length: 2885 seconds
#
# Revision: 1
# Processed by: cddbd v1.5.2PL0 Copyright (c) Steve Scherf et al.
# Submitted via: CDex 1.51
#
DISCID=dc0b4310
DTITLE=Big Bill Broonzy - Blues Legends
DYEAR=2002
DGENRE=Blues
TTITLE0=Mississippi River Blues
TTITLE1=Come Home Early
TTITLE2=Southern Flood Blues
TTITLE3=Horny Frog
TTITLE4=It's Your Time Now
TTITLE5=W.P.A. Blues
TTITLE6=Big Billy Blues
TTITLE7=Too Too Train Blues
TTITLE8=Worrying You Out Of My Mind
TTITLE9=How You Want It Done
TTITLE10=Bull Cow Blues
TTITLE11=Long Tall Mama
TTITLE12=Good Jelly
TTITLE13=Rising Sun Shine On
TTITLE14=Good Liquor Gonna Carry Me Down
TTITLE15=Friendless Blues
EXTD=YEAR: 2002
EXTT0=
EXTT1=
EXTT2=
EXTT3=
EXTT4=
EXTT5=
EXTT6=
EXTT7=
EXTT8=
EXTT9=
EXTT10=
EXTT11=
EXTT12=
EXTT13=
EXTT14=
EXTT15=
PLAYORDER=
